<svg version="1.1" id="Layer_1" xmlns="http://www.w3.org/2000/svg" xmlns:xlink="http://www.w3.org/1999/xlink" x="0px" y="0px"
	 width="100%" viewBox="0 0 1024 1024" enable-background="new 0 0 1024 1024" xml:space="preserve">
<path fill="#000000" opacity="1.000000" stroke="none" 
	d="
M802.685425,443.386200 
	C804.973816,447.096863 806.896301,450.617615 809.156738,453.906158 
	C818.001526,466.773285 809.805359,480.296570 800.303772,485.200348 
	C795.231567,487.818146 789.731201,489.172302 784.189941,490.322266 
	C780.267700,491.136292 776.397827,492.112366 772.775085,493.822754 
	C766.663086,496.708405 764.782043,500.794769 766.968445,507.289886 
	C768.180603,510.890747 770.090637,514.259277 771.719849,517.716675 
	C778.700684,532.531128 776.977295,538.929321 763.553101,547.995728 
	C762.736450,548.547241 761.957153,549.154114 760.925537,549.906555 
	C762.527283,553.289185 765.330811,555.840698 766.411682,559.382874 
	C768.020264,564.654053 768.165527,569.462708 763.559937,573.513550 
	C760.812195,575.930298 758.472351,578.812683 755.710083,581.210266 
	C748.146606,587.775208 746.726562,595.377502 750.735046,604.518311 
	C755.976929,616.471924 755.708557,628.881287 752.035278,641.131042 
	C746.598816,659.260559 733.437073,668.422302 715.336853,671.307983 
	C700.505554,673.672485 685.819336,670.700195 671.078186,669.888428 
	C657.004456,669.113464 643.007874,666.328369 628.832336,668.354248 
	C617.176758,670.020081 609.614319,676.913086 604.978394,687.322815 
	C600.534607,697.301086 599.207031,708.076904 597.343811,718.706299 
	C596.914612,721.154846 596.502136,723.624756 595.808411,726.005127 
	C593.779419,732.966614 590.793274,735.242737 583.527710,735.231567 
	C531.200073,735.151062 478.869537,735.307983 426.546173,734.776672 
	C407.222198,734.580444 387.875580,735.043945 368.574860,734.125732 
	C354.420532,733.452393 340.275330,733.565674 326.127502,733.258911 
	C316.665527,733.053711 313.107605,727.969421 315.530731,718.736511 
	C320.693329,699.065125 329.081268,680.498840 335.222626,661.157776 
	C342.701111,637.605652 346.076874,613.525513 344.576508,588.882751 
	C343.078369,564.277405 332.216675,543.752563 316.441437,525.252258 
	C311.325439,519.252563 305.422272,517.861145 298.199188,517.227478 
	C255.560150,513.486633 213.394257,507.491974 173.578430,490.395874 
	C160.397385,484.736237 154.430847,475.755341 154.481049,461.042084 
	C154.822311,361.053131 154.679871,261.062469 154.619278,161.072372 
	C154.615601,154.990662 156.070648,149.596466 159.873840,144.830399 
	C163.638367,140.112793 168.416504,137.615479 174.526398,137.635574 
	C189.024612,137.683228 203.526825,137.864914 218.020477,137.604706 
	C235.805695,137.285400 253.447601,135.091812 271.092743,132.961853 
	C292.994873,130.318024 314.831482,127.263741 336.598541,123.670052 
	C353.937927,120.807350 371.297241,118.051262 388.683258,115.489052 
	C405.747192,112.974312 422.834686,110.632355 439.957275,108.504364 
	C465.610229,105.316208 491.341217,103.813286 517.131958,104.755112 
	C569.631897,106.672287 619.089600,119.311012 663.195068,148.946976 
	C712.200623,181.875519 742.325928,227.954956 756.269531,284.937164 
	C759.347351,297.515289 761.423950,310.272369 761.438965,323.336700 
	C761.447510,330.774292 760.341125,337.859924 757.904236,344.843658 
	C756.428040,349.074158 755.446838,353.475647 754.023071,357.726593 
	C751.448364,365.413910 753.030701,372.377045 757.106812,379.116699 
	C765.062317,392.270599 775.157043,403.872681 783.944580,416.419617 
	C790.154541,425.286316 796.300354,434.197998 802.685425,443.386200 
M258.000793,413.565887 
	C269.220886,397.418732 284.614014,387.465210 304.323151,383.270996 
	C272.051727,364.195862 273.858765,326.245056 291.334595,307.638611 
	C309.958801,287.809509 342.480225,287.835938 360.421204,307.503693 
	C376.931366,325.602966 382.367004,363.931793 347.268646,383.166962 
	C348.968353,383.659912 350.495728,384.219208 352.071533,384.541962 
	C368.563324,387.919678 381.925018,396.343170 392.452545,409.410156 
	C401.870697,421.100098 407.100067,434.667877 410.116913,449.167206 
	C410.678375,451.865509 411.785583,452.701202 414.359924,452.844604 
	C423.161011,453.334778 431.947754,454.478180 440.746246,454.545166 
	C467.616516,454.749664 494.099243,458.057953 520.320557,463.687988 
	C538.223633,467.532013 556.316040,471.385773 572.569275,479.912323 
	C586.360229,487.147125 606.720825,479.202026 606.603943,458.965088 
	C606.402893,424.143555 607.001404,389.324982 606.161560,354.497070 
	C605.458557,325.349213 605.853516,296.173492 605.865051,267.010162 
	C605.880737,227.545685 608.416809,188.108124 607.027466,148.618561 
	C606.826660,142.912689 603.815308,140.272781 599.767090,137.768753 
	C596.439880,135.710724 594.709167,137.103668 594.424377,140.587723 
	C593.652710,150.026184 592.460876,159.474045 592.426636,168.921768 
	C592.230713,222.916016 592.318604,276.911316 592.319824,330.906250 
	C592.320801,372.902313 592.347229,414.898376 592.336792,456.894440 
	C592.334290,466.892029 587.398499,469.703003 578.542053,464.902557 
	C576.358643,463.719086 574.105103,462.587402 571.762451,461.787201 
	C545.072266,452.670929 517.446899,447.925629 489.573456,444.391449 
	C469.055420,441.789795 448.356750,442.754272 427.771301,441.413239 
	C424.798187,441.219543 422.604950,440.735687 420.559784,438.124908 
	C417.835754,434.647430 415.245422,431.131805 417.272217,426.883179 
	C419.124512,423.000305 423.560394,423.711212 427.096680,423.764038 
	C440.583649,423.965393 454.095428,423.972046 467.543915,424.865112 
	C480.786438,425.744507 494.008209,427.288208 507.159027,429.116150 
	C528.396484,432.068085 549.340576,436.554047 569.918152,442.636841 
	C573.541382,443.707886 574.777588,442.454102 574.688416,438.830231 
	C574.540955,432.834564 574.501221,426.826630 574.721924,420.835144 
	C574.850098,417.354553 573.421143,415.123688 570.514893,413.582458 
	C565.809570,411.087158 560.969788,408.815308 556.418396,406.065765 
	C545.479126,399.457245 534.457642,398.138367 522.772278,404.200134 
	C517.776855,406.791534 513.619751,405.400940 511.095154,401.197571 
	C508.395508,396.702789 509.281464,392.473480 514.062683,389.081573 
	C519.588684,385.161377 525.775330,383.059845 532.633545,382.596283 
	C545.527405,381.724762 556.717590,386.589417 567.747437,392.301117 
	C569.681885,393.302795 571.508423,395.226440 574.600220,393.826782 
	C574.600220,387.993561 574.610352,382.028351 574.592041,376.063232 
	C574.588196,374.800903 573.927979,373.899261 572.890015,373.187866 
	C565.747620,368.292694 558.524475,363.553345 550.777405,359.621765 
	C534.842163,351.534698 520.159485,354.415466 506.372742,364.597839 
	C497.753143,370.963898 490.946686,379.288177 483.345428,386.747986 
	C472.610138,397.283447 460.625641,404.391846 444.853210,403.642090 
	C436.970245,403.267365 429.253845,402.700653 422.003052,399.390808 
	C417.658478,397.407654 414.829681,392.911530 415.996735,389.554779 
	C417.503632,385.220551 421.016052,383.705688 425.419250,383.625793 
	C428.326935,383.573029 430.993042,384.460632 433.708405,385.219177 
	C446.785370,388.872223 458.419281,386.553925 468.224915,376.829468 
	C474.845825,370.263397 481.196716,363.410095 488.034912,357.081268 
	C500.760803,345.303345 515.461609,337.776733 533.250610,337.659027 
	C545.730591,337.576477 556.455994,342.789459 566.873413,348.920380 
	C568.937744,350.135284 570.694580,352.190643 573.679626,351.727509 
	C573.965698,350.938019 574.476624,350.175110 574.484314,349.407135 
	C574.566528,341.244110 574.617493,333.080017 574.568298,324.916870 
	C574.549683,321.822449 572.551147,320.050720 569.820190,319.169403 
	C565.634583,317.818817 562.086487,315.438995 558.500488,312.968536 
	C538.437561,299.146667 518.258484,299.958771 499.214478,315.292389 
	C490.495422,322.312714 483.973480,331.569397 475.353699,338.739014 
	C460.488403,351.103333 444.274200,359.135132 424.221832,356.379517 
	C420.689301,355.894073 417.683014,354.797577 416.173950,351.397491 
	C414.880554,348.483551 416.015747,345.827301 417.809662,343.484619 
	C420.409149,340.089813 424.064056,339.466583 428.087952,339.624115 
	C442.626678,340.193176 454.636627,334.775940 464.591278,324.277527 
	C470.321564,318.234253 476.233215,312.353424 482.239716,306.583221 
	C508.109619,281.730957 538.002930,278.839142 568.180969,298.145691 
	C569.811035,299.188507 571.286804,300.732147 573.796082,300.314941 
	C575.162781,298.304993 574.625916,295.912354 574.627319,293.668091 
	C574.659729,243.339462 574.654968,193.010818 574.654358,142.682190 
	C574.654297,141.182541 574.830078,139.645737 574.568481,138.190125 
	C573.738892,133.574020 572.255981,130.152557 566.542542,128.962402 
	C553.015137,126.144585 539.476868,123.977531 525.672363,123.027359 
	C499.487946,121.225067 473.426086,122.593712 447.455200,125.671989 
	C426.525909,128.152695 405.669220,131.279083 384.816193,134.361725 
	C360.184967,138.002869 335.583038,141.846130 310.985565,145.710785 
	C287.349213,149.424408 263.623810,152.609741 239.764603,154.124008 
	C219.868393,155.386749 199.932419,157.141724 179.921066,155.440521 
	C172.352646,154.797089 172.282349,155.236053 172.281067,163.151306 
	C172.273438,210.480133 172.276306,257.808960 172.319733,305.137756 
	C172.320648,306.147125 171.680939,307.429077 173.000778,308.288086 
	C175.441666,305.987213 176.500534,302.938202 177.613861,300.027771 
	C184.643936,281.649811 195.319992,265.388550 206.700607,249.531342 
	C210.571564,244.137772 216.743347,244.057800 221.037720,249.191132 
	C221.718124,250.004486 221.805939,251.446381 223.385483,251.540771 
	C235.144089,234.154099 246.111572,216.285934 256.037720,197.778992 
	C260.474091,189.507584 267.075989,188.998596 272.119812,196.771942 
	C283.814575,214.795486 295.313995,232.946045 306.830505,251.084534 
	C307.978882,252.893204 308.865784,254.913986 309.585938,256.938812 
	C311.064148,261.094849 309.620209,264.566559 306.242310,267.018646 
	C302.865234,269.470123 299.484650,268.323029 296.717285,265.747406 
	C294.787292,263.951111 293.065643,261.843201 291.619141,259.633423 
	C288.519501,254.898239 285.715240,249.970917 282.687408,245.187241 
	C276.852509,235.968674 270.946411,226.795151 265.073944,217.609329 
	C264.302032,218.093048 263.902893,218.200836 263.758575,218.453918 
	C254.523331,234.653320 244.742386,250.518646 234.584671,266.153290 
	C233.197815,268.287903 233.796616,270.199036 234.957504,272.200958 
	C238.299362,277.963959 241.619583,283.741119 244.838577,289.573303 
	C249.745560,298.463776 254.720215,307.323547 259.333740,316.365997 
	C261.115936,319.859039 261.233582,323.814697 258.676239,327.244080 
	C256.663635,329.943024 253.611557,329.585297 250.847580,329.185272 
	C247.597870,328.714966 245.775986,326.094269 244.262299,323.502441 
	C241.407578,318.614441 238.832748,313.563751 236.016479,308.652405 
	C228.755569,295.990051 221.426407,283.366852 213.894501,270.329865 
	C208.934540,274.794769 206.669296,280.403748 203.733231,285.516296 
	C192.100037,305.773224 184.238022,327.843109 173.544266,348.554993 
	C172.187546,351.182739 172.279678,354.027893 172.280914,356.862213 
	C172.293579,385.859497 172.294632,414.856750 172.340164,443.854004 
	C172.342682,445.450623 171.825378,447.173248 172.951843,448.645996 
	C174.401810,449.082855 175.565079,448.356079 176.797989,447.892487 
	C198.143570,439.867340 220.469528,436.692505 243.010437,434.715179 
	C246.357422,434.421570 248.164978,432.937836 249.345673,430.066895 
	C251.625610,424.523071 253.857574,418.947540 258.000793,413.565887 
M305.404053,402.158112 
	C296.245850,404.363342 287.385651,407.355255 280.627533,414.275696 
	C269.179260,425.998962 262.056427,439.699677 262.305725,456.566254 
	C262.337402,458.708710 261.887878,460.855865 261.701691,463.004364 
	C260.913239,472.104034 260.143555,481.205353 259.358978,490.305359 
	C259.151367,492.713654 259.647736,494.471619 262.484589,495.021545 
	C268.314972,496.151825 274.139618,497.065002 280.313568,496.761963 
	C280.427246,495.332581 280.787201,494.145355 280.564087,493.080200 
	C278.869080,484.987091 279.682495,476.803467 279.771942,468.673920 
	C279.826202,463.737579 280.513092,458.725494 281.618011,453.908508 
	C282.571808,449.750305 285.901337,447.652863 290.217865,447.722382 
	C294.560822,447.792267 297.278168,450.045502 298.548462,454.268585 
	C299.342560,456.908539 299.409637,459.489532 298.989685,462.155731 
	C297.275909,473.036804 296.565369,483.919678 298.220001,494.908081 
	C298.626892,497.610229 299.513336,498.499634 302.201965,498.729614 
	C318.455719,500.119995 334.760284,500.053528 351.038727,500.701355 
	C354.909119,500.855377 355.907196,499.040710 355.864288,495.581909 
	C355.715607,483.589478 355.677521,471.595245 355.674194,459.601685 
	C355.672546,453.724060 359.009338,449.958191 364.047729,449.910675 
	C369.030334,449.863647 372.863007,453.716400 373.339783,459.136719 
	C374.245575,469.434570 374.409424,479.751221 374.372437,490.082153 
	C374.330750,501.731018 376.513275,503.440125 388.173370,501.256134 
	C388.663879,501.164246 389.146820,500.919861 389.631287,500.925354 
	C393.947601,500.974304 394.779205,498.438507 394.695831,494.714630 
	C394.479889,485.069214 394.326569,475.435272 393.869354,465.785645 
	C393.078064,449.086060 387.932831,434.227936 377.978577,420.928101 
	C370.818726,411.361877 361.254150,405.356262 349.826477,402.267120 
	C342.466766,400.277649 334.902466,401.334137 327.455902,401.455383 
	C320.361145,401.570862 313.204529,399.552277 305.404053,402.158112 
M312.220703,314.642273 
	C301.019318,320.803650 296.960297,330.638977 297.295837,342.965790 
	C297.725250,358.740753 311.736816,371.743622 327.355164,370.594818 
	C347.220001,369.133728 359.504822,351.308105 353.846039,332.155914 
	C348.688202,314.699310 330.786407,306.898834 312.220703,314.642273 
M190.402328,462.074188 
	C184.933563,463.907166 179.490921,465.795776 174.190994,469.215302 
	C177.100159,472.699005 180.713928,474.066711 184.141663,475.527191 
	C198.576401,481.677307 213.713928,485.512634 228.994095,488.860168 
	C241.655640,491.634064 241.735275,491.671356 241.614960,478.910828 
	C241.548828,471.897583 242.437317,465.017242 243.361771,458.093781 
	C243.653885,455.906067 245.911118,450.757904 240.396164,451.771484 
	C223.920517,454.799438 207.146332,456.449738 190.402328,462.074188 
z"/>
<path fill="#000000" opacity="1.000000" stroke="none" 
	d="
M406.364532,784.450806 
	C412.631317,770.570801 412.631317,770.570801 427.541107,770.650757 
	C434.303955,770.687012 434.326233,770.687012 434.331177,777.621643 
	C434.345703,798.117249 434.211548,818.614319 434.438263,839.107483 
	C434.492371,843.995117 432.780487,845.477600 428.073029,845.365295 
	C414.894592,845.050781 416.778931,846.398621 416.679443,834.278076 
	C416.586487,822.950439 416.659576,811.621399 416.659576,800.201599 
	C410.283478,813.600403 403.990051,826.921997 397.581207,840.187805 
	C396.632324,842.151917 396.211517,845.104431 393.227661,844.986145 
	C390.569702,844.880859 390.246002,842.151611 389.325714,840.290710 
	C382.553650,826.597107 375.462402,813.048950 370.341858,799.244751 
	C370.341858,812.351379 370.202911,826.007019 370.423218,839.656860 
	C370.492828,843.971924 369.207825,845.469849 364.754364,845.426758 
	C352.670074,845.309692 352.669281,845.499634 352.668457,833.186279 
	C352.667175,814.190308 352.790131,795.192932 352.569031,776.199524 
	C352.517151,771.739807 353.985229,770.546448 358.301300,770.561462 
	C373.419891,770.614136 373.372467,770.487793 379.703400,784.282104 
	C383.037018,791.545715 386.537537,798.733643 390.041595,805.917297 
	C390.890320,807.657349 391.429199,809.698486 394.007019,810.987305 
	C398.091888,802.208008 402.144165,793.498657 406.364532,784.450806 
z"/>
<path fill="#000000" opacity="1.000000" stroke="none" 
	d="
M336.720825,770.985596 
	C338.925812,772.743774 338.302429,774.874634 338.306824,776.791504 
	C338.354553,797.609558 338.233704,818.428711 338.418243,839.245239 
	C338.457825,843.709900 337.226135,845.470703 332.517242,845.369690 
	C318.542633,845.069763 320.811462,846.430969 320.814423,833.674255 
	C320.817139,822.076111 320.216766,810.463318 321.359192,797.753418 
	C315.789337,813.136475 308.887939,826.745483 302.125214,840.414368 
	C301.227753,842.228333 300.864594,845.012390 298.118866,844.949097 
	C295.458435,844.887878 295.040344,842.200989 294.121857,840.346985 
	C287.717621,827.419739 281.088837,814.595947 275.346558,801.175110 
	C275.346558,813.905151 275.184967,826.638428 275.432587,839.363647 
	C275.521484,843.931641 274.057129,845.527832 269.438477,845.397522 
	C255.838257,845.013977 257.746246,846.700745 257.681335,833.664124 
	C257.587585,814.844971 257.793701,796.023193 257.556335,777.206543 
	C257.494659,772.318176 258.887085,770.977600 263.937286,770.419434 
	C274.633179,769.237305 281.071411,772.221802 284.634186,783.195618 
	C287.828979,793.036011 293.344635,802.122864 298.337738,812.593506 
	C304.182800,799.867004 309.777252,788.223022 314.851135,776.356384 
	C316.703156,772.024963 319.026093,770.076599 323.789734,770.572388 
	C327.912445,771.001465 332.103760,770.770874 336.720825,770.985596 
z"/>
<path fill="#000000" opacity="1.000000" stroke="none" 
	d="
M879.308472,307.218628 
	C880.842468,339.160248 874.417419,368.846741 859.362427,396.582336 
	C857.777527,399.502228 856.096863,402.406342 854.132019,405.075897 
	C850.759216,409.658386 846.337402,410.467133 841.937805,407.628235 
	C837.675049,404.877594 836.170776,399.532104 839.026001,394.899902 
	C843.589355,387.496460 847.590698,379.838776 850.649048,371.722382 
	C866.091370,330.741058 865.379578,290.755432 842.882446,252.249847 
	C840.446472,248.080368 839.433960,243.593048 838.945923,238.987473 
	C838.526123,235.025360 840.780396,232.418182 844.533997,231.147354 
	C848.652588,229.752991 853.480530,231.339462 855.799927,235.284500 
	C860.789429,243.771027 864.451294,252.914261 868.326843,261.928894 
	C874.475159,276.229736 877.849426,291.262421 879.308472,307.218628 
z"/>
<path fill="#000000" opacity="1.000000" stroke="none" 
	d="
M636.818237,945.599548 
	C631.784302,948.596313 626.639343,947.248779 621.618774,946.922852 
	C619.849731,946.808044 619.794128,944.758301 619.793213,943.255493 
	C619.779663,921.259949 619.788818,899.264343 619.801086,877.268799 
	C619.801819,875.916077 619.934204,874.618713 621.264832,873.776794 
	C624.886597,871.484985 635.625183,873.349243 638.235291,876.944519 
	C646.355591,888.129883 654.375122,899.388428 662.436401,910.616638 
	C663.583130,912.213806 664.744446,913.800415 666.686279,916.477112 
	C666.686279,904.007568 666.685608,892.779724 666.686584,881.551880 
	C666.687256,873.654785 666.688416,873.610474 674.480652,873.644836 
	C685.736145,873.694519 684.284668,872.505737 684.319763,883.500977 
	C684.381348,902.830322 684.201416,922.161377 684.408020,941.488647 
	C684.457092,946.085938 682.940430,947.256592 678.435791,947.527344 
	C672.067383,947.910034 668.117798,945.855774 664.500244,940.464111 
	C655.814148,927.518127 646.375732,915.076965 636.983826,902.076294 
	C636.983826,916.627991 636.983826,930.893494 636.818237,945.599548 
z"/>
<path fill="#000000" opacity="1.000000" stroke="none" 
	d="
M565.330750,786.078247 
	C569.624695,800.106750 566.645874,807.382080 552.524292,817.215698 
	C558.207397,826.010193 563.907593,834.831116 570.182800,844.541809 
	C563.252441,845.664551 557.377869,845.580444 551.536255,844.792603 
	C549.892578,844.570923 549.141296,842.604553 548.267578,841.192627 
	C544.591309,835.251892 540.954102,829.286743 537.241394,823.368896 
	C536.009949,821.406067 534.793213,819.445190 531.967896,819.342590 
	C528.953552,819.233215 527.210632,820.022095 527.292969,823.466858 
	C527.428101,829.123291 527.219421,834.787964 527.360535,840.444092 
	C527.444885,843.825439 526.125366,845.289673 522.693359,845.259949 
	C507.015228,845.124268 509.808960,846.950745 509.689819,832.965271 
	C509.529633,814.156372 509.774780,795.343628 509.563782,776.535706 
	C509.513062,772.015930 510.814911,770.280090 515.462585,770.585083 
	C525.897156,771.270020 536.376282,769.836121 546.829041,771.485718 
	C555.714600,772.888123 561.730774,777.536926 565.330750,786.078247 
M531.786316,786.987427 
	C529.814636,787.139954 527.283264,786.940979 527.460083,789.803406 
	C527.737488,794.295654 525.957214,799.001343 528.675537,803.256104 
	C528.809265,803.465515 529.284119,803.544189 529.597534,803.538635 
	C534.375122,803.454529 539.212646,804.385986 543.893372,802.649170 
	C547.579102,801.281494 549.695068,798.621033 549.524658,794.743347 
	C549.340698,790.556152 546.686096,788.026001 542.636475,787.452087 
	C539.370361,786.989258 536.020874,787.115051 531.786316,786.987427 
z"/>
<path fill="#000000" opacity="1.000000" stroke="none" 
	d="
M501.847351,946.996216 
	C496.250610,940.312805 492.335602,932.942322 488.071014,925.816528 
	C486.211670,922.709717 483.929199,921.627380 480.678528,922.250061 
	C476.929169,922.968201 478.271667,926.113770 478.190491,928.352844 
	C478.009613,933.343262 478.521149,938.384583 478.021759,943.331543 
	C477.274628,950.732666 471.306763,946.579895 467.747620,947.140442 
	C465.301941,947.525635 460.717010,949.304077 460.709839,943.760315 
	C460.680450,921.109497 460.738434,898.458496 460.784973,875.807617 
	C460.785980,875.331055 461.036560,874.855103 461.284393,873.975342 
	C469.429565,873.198975 477.696655,872.649231 485.968048,873.331543 
	C490.089600,873.671509 494.228455,873.472778 498.356140,874.497437 
	C508.912048,877.117859 515.300720,883.784485 516.997498,894.233948 
	C518.548706,903.787170 514.480042,911.411194 506.476868,916.874084 
	C505.523560,917.524902 504.593964,918.210266 502.926331,919.396973 
	C508.716614,928.277771 514.459839,937.086426 520.888000,946.945435 
	C513.976990,947.600159 508.112762,947.405029 501.847351,946.996216 
M478.144135,895.649048 
	C478.154663,897.981873 478.159088,900.314819 478.177521,902.647583 
	C478.193420,904.658203 479.186676,905.799927 481.226105,905.777405 
	C485.054382,905.735168 488.938293,905.986145 492.694122,905.419617 
	C496.665314,904.820618 499.315521,902.169128 499.558990,897.962830 
	C499.806519,893.686523 497.350616,891.267517 493.406158,889.995056 
	C490.124542,888.936401 486.777252,889.687439 483.490265,889.313843 
	C479.290314,888.836365 477.622681,890.646423 478.144135,895.649048 
z"/>
<path fill="#000000" opacity="1.000000" stroke="none" 
	d="
M750.666931,822.999878 
	C750.665833,807.018127 750.773499,791.535034 750.590210,776.055420 
	C750.541809,771.970398 751.830261,770.512390 755.992859,770.578491 
	C769.140808,770.787476 782.295532,770.779968 795.444275,770.602722 
	C799.584534,770.546875 800.957520,772.084534 800.985718,776.137817 
	C801.061035,786.965759 801.198425,786.968445 790.391907,787.002930 
	C784.565491,787.021545 778.735229,787.161926 772.913757,786.997620 
	C766.994446,786.830505 768.646057,791.082581 768.345886,794.293396 
	C768.020508,797.774109 768.670959,800.042786 773.036011,799.892578 
	C780.185547,799.646606 787.353027,799.959961 794.507080,799.790649 
	C798.220581,799.702881 799.370911,801.202087 799.413879,804.815552 
	C799.541138,815.504395 799.668884,815.497803 789.136047,815.457947 
	C784.149170,815.439087 779.149292,815.662781 774.179260,815.369873 
	C770.110107,815.130066 768.724060,816.836853 769.137634,820.621277 
	C769.227539,821.443726 769.247620,822.298035 769.134338,823.114624 
	C768.529785,827.471802 770.302734,829.023621 774.733154,828.833252 
	C782.044434,828.519165 789.381042,828.849060 796.702576,828.695984 
	C800.174805,828.623413 801.418152,830.030029 801.373230,833.426453 
	C801.189758,847.286194 802.748108,845.020996 790.325195,845.100464 
	C779.005615,845.172913 767.681885,844.983093 756.367188,845.233582 
	C751.993652,845.330444 750.377930,843.836121 750.600952,839.477844 
	C750.872742,834.164612 750.666443,828.826904 750.666931,822.999878 
z"/>
<path fill="#000000" opacity="1.000000" stroke="none" 
	d="
M451.167725,770.686890 
	C464.815247,770.664612 477.978424,770.789551 491.136627,770.589050 
	C495.493286,770.522644 497.440277,771.618958 497.364807,776.439636 
	C497.202606,786.803467 497.436127,786.851990 486.938171,786.857422 
	C481.277863,786.860291 475.611328,786.805481 469.959595,786.530762 
	C466.832581,786.378723 465.123901,787.266418 465.347931,790.649658 
	C465.424805,791.810547 465.488739,793.000183 465.327026,794.143982 
	C464.706238,798.534729 466.520264,800.050903 470.920044,799.858582 
	C477.737183,799.560547 484.577789,799.834351 491.407715,799.778259 
	C494.729431,799.750977 496.211304,801.100342 496.157715,804.572083 
	C495.954926,817.711304 497.001312,815.262390 485.735352,815.456909 
	C480.583282,815.545837 475.421875,815.590149 470.276154,815.377686 
	C466.633301,815.227234 464.953979,816.531189 465.330780,820.275208 
	C465.480164,821.759705 465.448517,823.278015 465.340546,824.769531 
	C465.115753,827.874939 466.675690,828.847290 469.556641,828.814209 
	C476.885925,828.730042 484.223602,828.979004 491.544647,828.720154 
	C495.725830,828.572327 497.563232,829.661499 497.431976,834.257812 
	C497.084045,846.444153 498.612793,845.199829 486.376129,845.200195 
	C475.380707,845.200562 464.384064,845.050659 453.390472,845.180664 
	C449.134521,845.231018 447.543488,843.685608 447.578461,839.312805 
	C447.747681,818.156128 447.641144,796.997375 447.689850,775.839478 
	C447.694855,773.659485 446.990143,770.838562 451.167725,770.686890 
z"/>
<path fill="#000000" opacity="1.000000" stroke="none" 
	d="
M802.999451,947.354187 
	C794.168701,947.352295 785.835510,947.231628 777.508240,947.402222 
	C773.824951,947.477661 772.588623,946.097961 772.609802,942.438110 
	C772.732910,921.112000 772.736206,899.784363 772.617737,878.458191 
	C772.597412,874.800720 773.773376,873.470825 777.506226,873.521423 
	C790.829834,873.702209 804.157898,873.703369 817.482300,873.576477 
	C821.241943,873.540710 822.329346,875.060852 822.321594,878.635376 
	C822.293274,891.638062 822.120850,889.151794 811.965820,889.322449 
	C806.468933,889.414795 800.966675,889.453674 795.472107,889.310608 
	C792.304138,889.228149 790.769165,890.362427 791.010864,893.646667 
	C791.120483,895.137329 791.101074,896.651367 790.981750,898.142151 
	C790.699341,901.673828 792.375732,902.788330 795.750244,902.703552 
	C802.410522,902.536133 809.081482,902.788635 815.741516,902.616821 
	C819.214050,902.527283 820.437805,903.852478 820.383606,907.290039 
	C820.173340,920.606445 821.611145,918.049561 809.670349,918.289246 
	C804.674011,918.389526 799.668945,918.428345 794.677002,918.245789 
	C791.359802,918.124451 790.114014,919.510986 790.398987,922.688293 
	C790.517578,924.011108 790.526367,925.360596 790.415283,926.683777 
	C790.135925,930.012756 791.806763,931.074341 794.896667,931.037720 
	C802.226562,930.950928 809.561646,931.148743 816.888000,930.965942 
	C820.908508,930.865662 822.520020,932.230896 822.411621,936.448669 
	C822.083374,949.214722 823.720520,947.133301 811.496826,947.346252 
	C808.831787,947.392700 806.165222,947.353638 802.999451,947.354187 
z"/>
<path fill="#000000" opacity="1.000000" stroke="none" 
	d="
M441.870483,931.005615 
	C444.920654,931.250244 448.641998,929.965149 449.665100,932.672363 
	C451.235107,936.826843 450.729218,941.535767 449.829926,945.951599 
	C449.518921,947.478821 447.709747,947.309692 446.401672,947.311768 
	C432.570404,947.333618 418.739014,947.301086 404.907928,947.354370 
	C402.023376,947.365479 400.702057,946.325623 400.711487,943.253174 
	C400.778442,921.423218 400.759491,899.592896 400.703613,877.762817 
	C400.695984,874.788452 401.928864,873.596619 404.889404,873.608215 
	C418.387115,873.661072 431.885468,873.649414 445.383026,873.566711 
	C448.468323,873.547852 449.390411,874.984253 449.363007,877.853699 
	C449.229614,891.834595 450.600891,889.028198 438.597534,889.319702 
	C433.268005,889.449219 427.929504,889.469055 422.601654,889.313416 
	C419.307739,889.217224 418.330719,890.590454 418.283325,893.769531 
	C418.151001,902.651184 418.027893,902.648132 427.136322,902.655212 
	C432.635529,902.659485 438.136841,902.762329 443.633118,902.638733 
	C446.794556,902.567688 448.016754,903.826538 448.216156,907.013184 
	C448.922577,918.301880 449.014465,918.297241 437.545898,918.296448 
	C432.713257,918.296143 427.876434,918.410706 423.049377,918.244629 
	C419.735992,918.130676 418.275024,919.143494 418.262970,922.765930 
	C418.235291,931.065002 418.063904,931.061951 426.389587,931.036621 
	C431.388916,931.021362 436.388214,931.015503 441.870483,931.005615 
z"/>
<path fill="#000000" opacity="1.000000" stroke="none" 
	d="
M578.785278,826.723999 
	C580.024292,826.137878 581.001343,825.804260 581.795288,825.221191 
	C585.650757,822.389832 588.648315,822.190063 592.445801,826.163757 
	C597.273010,831.214966 604.067383,831.642944 610.669800,830.294373 
	C613.855713,829.643616 616.445618,827.698181 616.662109,823.858765 
	C616.869202,820.184937 614.533447,818.524841 611.640930,817.228638 
	C607.048218,815.170593 602.035034,814.645325 597.263306,813.247864 
	C590.491943,811.264771 583.804382,809.036438 580.055481,802.332947 
	C574.595520,792.570007 578.404724,779.443787 588.291565,773.653564 
	C601.403687,765.974365 620.884766,769.334839 630.757935,780.850098 
	C633.323120,783.841919 634.098816,786.127075 629.699158,788.000916 
	C627.720093,788.843933 625.873535,790.020630 624.023987,791.140137 
	C621.510925,792.661377 619.803467,792.184326 617.518738,790.091675 
	C612.535156,785.527039 606.625366,783.016846 599.691284,785.531555 
	C597.221985,786.427002 595.428345,787.962952 595.333618,790.975342 
	C595.241272,793.914490 596.714844,795.721069 599.132996,796.858521 
	C603.532593,798.928101 608.405457,799.373047 613.018982,800.709961 
	C619.728882,802.654297 626.668701,804.343933 630.899841,810.686096 
	C638.728210,822.420288 633.079712,838.973022 618.974365,844.266968 
	C606.378601,848.994385 594.126648,847.471863 582.821899,839.958191 
	C580.466003,838.392334 578.524902,836.324890 576.734680,834.088013 
	C574.123230,830.824829 574.324158,828.435608 578.785278,826.723999 
z"/>
<path fill="#000000" opacity="1.000000" stroke="none" 
	d="
M577.576050,929.789917 
	C581.471313,932.073364 585.484802,930.755859 589.377380,930.934753 
	C594.528198,931.171509 599.698242,931.018127 604.859741,930.987610 
	C607.858521,930.969849 609.435608,932.047424 609.378479,935.396790 
	C609.128784,950.012512 610.968872,947.111328 598.147949,947.319092 
	C587.327820,947.494446 576.500122,947.217529 565.680542,947.408020 
	C561.760803,947.477051 560.514709,946.135437 560.542358,942.215881 
	C560.692749,920.903809 560.670288,899.589783 560.540649,878.277344 
	C560.516968,874.387329 561.665161,873.175598 565.735168,873.286926 
	C578.367188,873.632507 591.014282,873.582092 603.652893,873.444946 
	C608.170227,873.395935 609.526123,875.466309 609.147217,879.547791 
	C608.978455,881.365967 609.090881,883.208618 609.018799,885.037842 
	C608.899170,888.070679 607.433289,889.428162 604.260376,889.369324 
	C596.936646,889.233521 589.605347,889.464478 582.283447,889.287720 
	C578.656799,889.200195 576.948608,890.434875 577.334229,894.181702 
	C577.469910,895.499756 577.472473,896.855957 577.332947,898.173279 
	C576.950867,901.779358 578.706299,902.773621 582.046692,902.699036 
	C589.036377,902.542786 596.034363,902.768982 603.024780,902.629761 
	C606.262695,902.565247 607.419128,903.819092 607.379333,907.023499 
	C607.214905,920.268127 608.550964,918.093323 596.847717,918.285645 
	C592.186768,918.362244 587.503052,918.562744 582.866943,918.213135 
	C578.365173,917.873474 576.773438,919.620605 577.320068,923.937927 
	C577.548645,925.743713 577.421448,927.594543 577.576050,929.789917 
z"/>
<path fill="#000000" opacity="1.000000" stroke="none" 
	d="
M758.126343,883.869568 
	C760.365479,886.337891 762.551270,888.409485 764.056580,891.783813 
	C759.757263,894.547058 755.576904,897.448669 751.184814,899.983521 
	C748.091675,901.768677 747.254517,898.809448 746.052490,896.928345 
	C740.948975,888.941284 732.549622,886.246887 723.977051,889.760620 
	C717.306396,892.494812 714.641479,898.127625 713.656799,904.603210 
	C712.806396,910.196228 712.948425,915.890991 714.872070,921.365112 
	C717.210938,928.020508 722.107666,931.681763 728.904663,932.530457 
	C736.438782,933.471252 742.136047,930.026611 746.273621,923.931030 
	C749.899536,918.589233 749.872681,918.446655 755.298340,922.299500 
	C758.238037,924.387085 761.625549,925.952332 763.869629,928.879883 
	C755.784729,944.265137 741.254700,951.232971 723.761536,948.226624 
	C708.749695,945.646790 698.252197,934.519836 695.547668,918.501099 
	C693.358643,905.535889 695.191162,893.428162 704.371399,883.587280 
	C718.820251,868.098633 741.493774,868.319763 758.126343,883.869568 
z"/>
<path fill="#000000" opacity="1.000000" stroke="none" 
	d="
M222.100952,919.075317 
	C220.106171,931.024414 220.106171,931.019287 231.486832,931.004639 
	C237.151764,930.997375 242.816833,931.034302 248.481659,931.009399 
	C251.522873,930.996033 253.078461,932.276794 253.102356,935.487366 
	C253.211563,950.164307 253.930069,947.133789 242.138733,947.325500 
	C231.477875,947.498840 220.809586,947.229126 210.149445,947.423279 
	C206.182556,947.495483 204.543304,946.416748 204.579834,942.118835 
	C204.759720,920.959534 204.730347,899.797424 204.596329,878.637451 
	C204.572281,874.839966 205.592026,873.395569 209.653580,873.458923 
	C221.810349,873.648621 233.975510,873.515869 246.133575,873.296692 
	C250.664352,873.215088 252.633987,874.535461 252.443985,879.539856 
	C252.027283,890.516052 253.117203,889.237000 242.775620,889.328857 
	C237.277618,889.377625 231.773621,889.477539 226.282166,889.280640 
	C222.628967,889.149597 220.957443,890.493347 221.340210,894.206665 
	C221.442184,895.195740 221.455429,896.217163 221.333847,897.202026 
	C220.837631,901.222168 222.311111,902.936157 226.595810,902.729187 
	C232.746185,902.432007 238.926636,902.807312 245.085220,902.611450 
	C248.772507,902.494202 250.513916,903.441223 250.415482,907.590271 
	C250.116837,920.178528 251.545410,918.040771 239.811966,918.324890 
	C234.005096,918.465454 228.174026,917.732056 222.100952,919.075317 
z"/>
<path fill="#000000" opacity="1.000000" stroke="none" 
	d="
M351.349243,938.953003 
	C351.323151,947.363586 351.323151,947.364014 343.610291,947.357117 
	C342.113342,947.355774 340.602539,947.216370 339.122070,947.370544 
	C335.081268,947.791565 333.957764,945.771362 333.969330,942.065796 
	C334.034821,921.108521 334.038818,900.150452 333.889526,879.193848 
	C333.858673,874.866089 335.451752,873.574524 339.758636,873.483337 
	C348.901550,873.290039 358.019653,873.253479 367.164246,873.583679 
	C381.650635,874.106628 391.470673,883.985107 391.347107,898.407715 
	C391.234314,911.573486 380.970001,921.232849 366.961426,921.341003 
	C363.136047,921.370483 359.308350,921.439514 355.485443,921.342407 
	C352.532562,921.267395 351.244995,922.484375 351.329163,925.488586 
	C351.450226,929.809631 351.353058,934.136841 351.349243,938.953003 
M351.349670,898.434814 
	C351.370361,905.732422 351.370361,905.736572 358.630096,905.753296 
	C360.784576,905.758240 362.940552,905.779480 365.093323,905.711792 
	C370.745178,905.534241 373.565460,902.857483 373.645447,897.659851 
	C373.724213,892.543030 370.888214,889.675720 365.222076,889.401917 
	C361.914856,889.242126 358.588440,889.480896 355.281067,889.323120 
	C352.160248,889.174194 351.124481,890.651123 351.338623,893.529114 
	C351.436707,894.847534 351.352051,896.179626 351.349670,898.434814 
z"/>
<path fill="#000000" opacity="1.000000" stroke="none" 
	d="
M314.222229,890.155151 
	C310.582611,895.760010 307.212372,901.113220 303.632416,906.322327 
	C301.989868,908.712341 302.036804,910.492615 303.727325,912.990417 
	C310.073822,922.367249 316.145050,931.931580 322.232727,941.481018 
	C323.167389,942.947205 324.775421,944.202209 324.374329,946.955627 
	C318.772675,947.723389 313.032227,947.417664 307.316345,947.127136 
	C305.406464,947.030029 304.838287,945.069641 304.003052,943.674805 
	C300.092346,937.143799 296.224182,930.587341 291.853027,923.217468 
	C287.678253,930.394531 283.813599,936.729309 280.283264,943.245239 
	C278.653595,946.252991 276.663208,947.617798 273.183807,947.425110 
	C268.578217,947.170166 263.947845,947.362366 259.686462,947.362366 
	C258.492462,944.928589 259.739288,943.821655 260.534790,942.615723 
	C266.583466,933.446777 272.388184,924.100220 278.823364,915.210327 
	C281.957642,910.880615 281.391022,907.721436 278.597504,903.689087 
	C272.721375,895.207336 267.234161,886.455750 261.608704,877.801025 
	C260.907013,876.721436 259.803040,875.778442 260.193329,873.778564 
	C266.010284,873.778564 271.916199,873.664001 277.812988,873.845459 
	C279.684387,873.903137 280.240601,875.948059 281.061523,877.355774 
	C284.479706,883.217468 287.857025,889.102966 291.769409,895.880615 
	C295.642914,889.368774 299.249237,883.819946 302.303802,877.982422 
	C304.202454,874.354004 306.824432,872.956116 310.678864,873.069031 
	C314.975311,873.195068 319.329193,872.627258 324.460907,874.501160 
	C321.001160,879.780579 317.703552,884.812561 314.222229,890.155151 
z"/>
<path fill="#000000" opacity="1.000000" stroke="none" 
	d="
M728.065186,811.901611 
	C724.413269,821.596680 720.697449,830.859192 717.490295,840.294556 
	C716.164246,844.195801 714.031616,845.282349 710.163452,845.264404 
	C698.190125,845.208862 698.216125,845.328308 694.070190,834.272278 
	C686.951843,815.289673 679.782104,796.326294 672.680298,777.337585 
	C671.999817,775.518066 670.829163,773.785156 671.217041,771.112427 
	C676.852295,770.228394 682.595581,770.655090 688.316589,770.846008 
	C690.192627,770.908508 690.627747,772.657288 691.065063,774.016418 
	C696.296326,790.273865 702.604065,806.193909 706.590393,823.202332 
	C711.918518,807.136597 717.300781,791.350586 722.318542,775.449646 
	C723.494568,771.723022 725.277161,770.369751 729.041992,770.593689 
	C733.308411,770.847412 737.601501,770.652161 742.897034,770.652161 
	C738.728027,785.197510 732.866272,798.164062 728.065186,811.901611 
z"/>
<path fill="#000000" opacity="1.000000" stroke="none" 
	d="
M813.306030,364.359497 
	C820.065369,348.756287 824.098022,332.990601 823.707214,316.182587 
	C823.359436,301.225067 819.492859,287.333008 812.319824,274.292786 
	C810.953125,271.808228 809.635071,269.429901 809.590027,266.402466 
	C809.527588,262.211578 810.341187,258.643372 814.726440,257.183777 
	C819.371582,255.637650 823.287842,256.951538 826.050476,261.063232 
	C830.168030,267.191559 832.842407,274.045898 835.312073,280.919189 
	C846.281738,311.448181 842.926575,341.337372 830.853943,370.753845 
	C829.527466,373.985840 828.106934,377.182404 826.630859,380.349152 
	C823.653442,386.736877 819.978394,388.568390 815.052795,386.216888 
	C809.811035,383.714478 807.225342,377.085052 809.547363,371.833160 
	C810.622559,369.401154 811.927673,367.070770 813.306030,364.359497 
z"/>
<path fill="#000000" opacity="1.000000" stroke="none" 
	d="
M787.833496,279.072479 
	C792.487366,279.587006 794.956482,282.290588 796.835327,285.870544 
	C805.857178,303.060577 807.003906,321.007355 801.904785,339.494507 
	C800.408081,344.921021 799.181335,350.459015 796.593994,355.545227 
	C793.892395,360.855988 790.563538,362.163452 784.750732,360.062744 
	C780.367188,358.478546 778.047791,354.139679 779.488586,349.109680 
	C781.724609,341.303375 784.848450,333.769348 786.059387,325.650085 
	C787.495789,316.019379 786.542725,306.790955 782.322510,297.968384 
	C781.179199,295.578217 779.948303,293.300018 779.514832,290.564423 
	C778.387268,283.448639 780.227234,280.583282 787.833496,279.072479 
z"/>
<path fill="#000000" opacity="1.000000" stroke="none" 
	d="
M644.779785,773.238953 
	C646.735718,769.106018 650.164246,770.779602 652.857605,770.751343 
	C663.610168,770.638428 662.277100,769.625244 662.314270,779.892761 
	C662.385864,799.723816 662.219299,819.556580 662.437927,839.385498 
	C662.488708,843.997375 661.003296,845.489380 656.442383,845.369812 
	C642.665039,845.008484 644.752563,846.757324 644.686829,833.707458 
	C644.586182,813.710449 644.698730,793.712341 644.779785,773.238953 
z"/>
<path fill="#000000" opacity="1.000000" stroke="none" 
	d="
M238.804016,845.273071 
	C225.649750,845.275085 225.649551,845.275085 225.649872,832.610657 
	C225.650330,813.969910 225.803650,795.327087 225.548996,776.689819 
	C225.481812,771.771973 227.157364,770.418579 231.861023,770.567871 
	C245.097305,770.987732 243.239517,769.061035 243.301987,781.986633 
	C243.394485,801.126160 243.324097,820.266602 243.312897,839.406616 
	C243.311218,842.265381 243.647430,845.395081 238.804016,845.273071 
z"/>
<path fill="#000000" opacity="1.000000" stroke="none" 
	d="
M529.610596,910.999878 
	C529.610657,898.413330 529.610657,886.326782 529.610657,873.537048 
	C535.022461,873.537048 539.792053,873.544128 544.561707,873.534729 
	C548.124146,873.527710 547.309937,876.231567 547.315491,878.200073 
	C547.368347,896.817871 547.349365,915.435913 547.347717,934.053833 
	C547.347473,937.212158 547.262451,940.372192 547.343384,943.528198 
	C547.414001,946.283447 546.180054,947.401428 543.453308,947.358215 
	C526.655884,947.091858 529.947144,949.586853 529.640625,934.439392 
	C529.485901,926.795837 529.611633,919.146606 529.610596,910.999878 
z"/>
<path fill="#000000" opacity="1.000000" stroke="none" 
	d="
M827.660645,144.340134 
	C831.540039,148.610886 831.586487,153.111832 829.097717,157.490784 
	C826.546570,161.979416 821.959473,161.910721 817.591309,161.317566 
	C812.048584,160.564957 809.331909,155.011520 810.802551,147.980057 
	C811.797058,143.224792 817.093140,139.815292 821.777100,141.009308 
	C823.881348,141.545731 825.857910,142.432190 827.660645,144.340134 
z"/>
<path fill="#000000" opacity="1.000000" stroke="none" 
	d="
M220.674683,652.819336 
	C218.012589,643.234924 222.906067,636.528320 231.286514,637.787476 
	C236.002945,638.496155 239.311111,641.125061 240.169128,645.917114 
	C240.962311,650.346863 239.526535,654.126770 235.472443,656.552856 
	C231.184586,659.118958 226.968613,659.037048 223.006256,655.888000 
	C222.126083,655.188477 221.551224,654.104797 220.674683,652.819336 
z"/>
<path fill="#000000" opacity="1.000000" stroke="none" 
	d="
M779.708496,189.517212 
	C776.762146,187.364151 774.789124,185.104126 774.619080,181.567780 
	C774.318726,175.319504 775.947876,172.118225 780.663879,170.282654 
	C784.643616,168.733658 789.778625,170.470566 792.530273,174.296509 
	C795.087585,177.852173 795.053101,183.350113 792.451050,186.938477 
	C789.712830,190.714630 785.345703,191.695145 779.708496,189.517212 
z"/>
<path fill="#000000" opacity="1.000000" stroke="none" 
	d="
M818.561401,661.073608 
	C823.537537,665.269653 824.729675,669.917786 822.294189,674.424255 
	C819.862305,678.924194 814.917175,680.954285 810.060852,679.446350 
	C805.161560,677.925049 802.227051,673.533691 802.698120,668.428345 
	C803.359131,661.263245 810.187439,657.939331 818.561401,661.073608 
z"/>
<path fill="#000000" opacity="1.000000" stroke="none" 
	d="
M836.348999,528.156006 
	C835.225464,521.082092 838.125000,516.582092 844.311035,515.189636 
	C849.078796,514.116394 854.543884,517.032410 855.974792,521.413086 
	C857.836243,527.111938 855.477966,532.581299 850.272522,534.637817 
	C844.537292,536.903625 839.799011,534.803711 836.348999,528.156006 
z"/>
<path fill="#000000" opacity="1.000000" stroke="none" 
	d="
M254.590286,106.432564 
	C257.840057,111.075974 258.376373,117.500130 255.673126,120.661942 
	C252.855896,123.957039 249.018845,125.028046 244.825195,124.043648 
	C238.908463,122.654800 236.132889,117.083824 237.955887,110.658379 
	C239.343994,105.765831 245.283524,102.580597 250.323410,104.154633 
	C251.721588,104.591316 252.981232,105.471581 254.590286,106.432564 
z"/>
<path fill="#000000" opacity="1.000000" stroke="none" 
	d="
M726.828979,94.678223 
	C732.954468,99.154648 734.506042,103.547050 731.971985,108.778694 
	C730.244141,112.345726 727.934326,115.373451 723.418762,115.166557 
	C720.007019,115.010231 714.541809,109.380669 713.748291,105.452614 
	C712.173645,97.658569 718.383301,92.319855 726.828979,94.678223 
z"/>
<path fill="#000000" opacity="1.000000" stroke="none" 
	d="
M186.226959,550.804932 
	C192.699081,548.840271 197.686203,550.115540 199.816223,554.063171 
	C202.198456,558.478210 201.019913,563.777039 196.947357,566.961609 
	C192.177185,570.691711 185.837021,569.882935 182.468918,565.114624 
	C178.909225,560.075134 180.302185,554.200317 186.226959,550.804932 
z"/>
<path fill="#000000" opacity="1.000000" stroke="none" 
	d="
M269.261902,604.416870 
	C266.703064,598.237671 268.132477,593.567017 273.055328,590.991150 
	C277.831573,588.492126 283.960205,590.016113 286.687469,594.381042 
	C289.194427,598.393372 288.188019,604.191345 284.507751,606.938171 
	C279.990051,610.310059 273.578766,609.377014 269.261902,604.416870 
M278.783661,605.187561 
	C282.127930,603.631958 281.241852,601.456421 279.928741,598.841980 
	C277.470795,601.977966 277.470795,601.977966 278.783661,605.187561 
z"/>
<path fill="#000000" opacity="1.000000" stroke="none" 
	d="
M396.122498,194.040939 
	C413.921295,181.029633 437.213745,184.662155 449.290619,202.059128 
	C460.906250,218.791763 456.387146,242.341766 439.397888,253.612610 
	C424.428864,263.543152 402.471375,260.598114 391.223419,247.151199 
	C379.183044,232.757004 379.789307,210.647614 392.600739,197.385361 
	C393.641479,196.307983 394.761780,195.307434 396.122498,194.040939 
M414.390564,203.639435 
	C413.602173,203.901978 412.799866,204.129059 412.027496,204.432419 
	C401.641663,208.511703 396.791321,219.779144 400.898315,230.263809 
	C404.854095,240.362488 415.996674,245.247131 426.386719,241.437317 
	C436.207764,237.836151 441.400604,226.040344 437.630768,215.895828 
	C434.268372,206.847717 427.223267,202.940674 414.390564,203.639435 
z"/>
<path fill="#000000" opacity="1.000000" stroke="none" 
	d="
M364.892395,270.078705 
	C366.452454,262.056213 372.761078,257.911682 377.700012,252.965317 
	C380.586426,250.074539 384.671387,251.449554 387.694061,254.049561 
	C390.677612,256.615906 391.442627,262.300354 389.014160,265.507721 
	C386.004395,269.482880 382.587280,273.254028 378.370941,275.940948 
	C372.968933,279.383453 365.237976,278.106934 364.892395,270.078705 
z"/>
<path fill="#000000" opacity="1.000000" stroke="none" 
	d="
M384.517822,194.206268 
	C377.792969,194.324829 366.905182,186.470398 365.114746,180.389053 
	C363.982239,176.542343 365.178864,173.172867 368.081940,170.483124 
	C371.104004,167.683167 374.502045,168.680664 377.247009,170.558929 
	C381.624603,173.554337 385.470306,177.350082 388.221527,181.916824 
	C391.095337,186.687042 389.756622,190.870789 384.517822,194.206268 
z"/>
<path fill="#000000" opacity="1.000000" stroke="none" 
	d="
M353.898926,232.584808 
	C348.772339,230.824295 347.196838,227.049484 347.928101,222.659714 
	C348.657410,218.281967 352.083405,216.589935 356.411774,216.658096 
	C360.224792,216.718140 364.040039,216.643631 367.852692,216.714401 
	C371.006226,216.772980 373.413300,218.214066 374.090698,221.369949 
	C374.811859,224.729797 374.711670,228.113495 371.048279,230.001572 
	C365.775238,232.719299 360.283691,234.280792 353.898926,232.584808 
z"/>
<path fill="#000000" opacity="1.000000" stroke="none" 
	d="
M426.664124,169.061920 
	C425.915222,172.260757 424.236755,174.231705 421.725830,175.487640 
	C418.608643,177.046844 415.979706,176.610443 413.993744,173.509521 
	C410.263580,167.685089 409.993835,161.195770 410.945374,154.733719 
	C411.554260,150.598511 415.057281,149.476044 418.936676,149.685715 
	C423.506256,149.932678 426.653015,152.133392 427.152893,156.764053 
	C427.577209,160.694580 427.802338,164.724609 426.664124,169.061920 
z"/>
<path fill="#000000" opacity="1.000000" stroke="none" 
	d="
M427.329987,279.281372 
	C427.358795,283.032776 427.606659,286.344910 425.745789,289.384918 
	C423.365967,293.272766 419.735779,293.976562 415.779266,293.135101 
	C411.927917,292.316040 410.596130,289.310272 410.676971,285.620972 
	C410.749451,282.311981 410.640594,278.963593 411.121735,275.707977 
	C411.714508,271.697083 414.156860,268.958771 418.409485,268.822205 
	C422.569916,268.688629 425.215698,271.046417 426.408722,274.990417 
	C426.789795,276.250153 427.020782,277.555267 427.329987,279.281372 
z"/>
<path fill="#000000" opacity="1.000000" stroke="none" 
	d="
M475.125275,233.338837 
	C470.821136,233.374832 467.478943,232.241150 465.218964,228.921616 
	C461.582794,223.580719 464.196350,217.658859 470.582489,216.955826 
	C473.531891,216.631134 476.530548,216.768082 479.505402,216.656998 
	C484.158417,216.483276 487.136841,218.688309 488.152893,223.154175 
	C489.041229,227.059006 486.193970,231.132370 481.948975,232.743317 
	C479.854095,233.538300 477.706085,233.255310 475.125275,233.338837 
z"/>
<path fill="#000000" opacity="1.000000" stroke="none" 
	d="
M448.554443,190.410294 
	C448.194672,183.469940 452.469879,176.424271 458.354858,174.264633 
	C462.478394,172.751389 466.329651,173.628540 469.012878,177.223770 
	C471.460724,180.503647 470.579895,183.908524 468.076324,186.759583 
	C465.899170,189.238953 463.584991,191.696716 460.953247,193.656174 
	C456.447418,197.011017 451.281830,195.651749 448.554443,190.410294 
z"/>
<path fill="#000000" opacity="1.000000" stroke="none" 
	d="
M465.833282,273.075134 
	C459.791687,275.294769 455.895599,272.342041 452.415771,268.486206 
	C448.986298,264.686096 448.905884,260.478088 451.169922,256.026154 
	C453.378601,251.683044 456.924988,250.471695 460.970215,253.229904 
	C464.264679,255.476196 467.138855,258.349487 469.266571,261.753632 
	C471.679565,265.614319 470.541046,269.318604 465.833282,273.075134 
z"/>
<path fill="#000000" opacity="1.000000" stroke="none" 
	d="
M206.666107,382.095978 
	C206.772705,376.461121 210.286163,374.503143 214.647354,373.741241 
	C219.227631,372.941040 222.990570,374.537994 224.700943,379.065643 
	C226.272659,383.226318 226.824615,387.793488 223.253189,391.139954 
	C219.966858,394.219299 215.627838,393.066711 211.917694,391.759796 
	C207.818115,390.315674 206.529373,386.681458 206.666107,382.095978 
z"/>
<path fill="#000000" opacity="1.000000" stroke="none" 
	d="
M533.793274,214.816040 
	C538.929443,218.553680 540.231934,222.436401 538.128540,227.910583 
	C536.634949,231.797668 533.198425,233.240387 529.366272,233.214645 
	C524.719971,233.183472 521.680115,230.547760 520.183899,226.184692 
	C518.978455,222.669418 519.931702,219.489944 522.505798,217.095016 
	C525.553955,214.258987 529.181152,212.766464 533.793274,214.816040 
z"/>
</svg>