<!-- Updated: 2025-08-30T20:54:06.176Z -->
<svg width="80" height="80" viewBox="0 0 80 80" fill="none" xmlns="http://www.w3.org/2000/svg">
    <defs>
        <linearGradient id="pageGradient" x1="0%" y1="0%" x2="100%" y2="100%">
            <stop offset="0%" style="stop-color:#F5F5DC"/>
            <stop offset="100%" style="stop-color:#E6E6E6"/>
        </linearGradient>
        <linearGradient id="spineGradient" x1="0%" y1="0%" x2="0%" y2="100%">
            <stop offset="0%" style="stop-color:#8B4513"/>
            <stop offset="50%" style="stop-color:#654321"/>
            <stop offset="100%" style="stop-color:#3D2817"/>
        </linearGradient>
        <filter id="glow">
            <feGaussianBlur stdDeviation="2" result="coloredBlur"/>
            <feMerge> 
                <feMergeNode in="coloredBlur"/>
                <feMergeNode in="SourceGraphic"/>
            </feMerge>
        </filter>
    </defs>
    
    <!-- Shadow -->
    <ellipse cx="40" cy="70" rx="30" ry="5" fill="#000" opacity="0.2"/>
    
    <!-- Book spine/binding -->
    <rect x="38" y="25" width="4" height="45" fill="url(#spineGradient)"/>
    <rect x="38" y="28" width="4" height="2" fill="#FFD700"/>
    <rect x="38" y="65" width="4" height="2" fill="#FFD700"/>
    
    <!-- Left page -->
    <path d="M10 30 Q10 25 15 25 L38 25 L38 70 L15 70 Q10 70 10 65 Z" fill="url(#pageGradient)" stroke="#CCC" stroke-width="1"/>
    
    <!-- Right page -->
    <path d="M42 25 L65 25 Q70 25 70 30 L70 65 Q70 70 65 70 L42 70 Z" fill="url(#pageGradient)" stroke="#CCC" stroke-width="1"/>
    
    <!-- Mystical symbol on left page -->
    <circle cx="24" cy="42" r="8" fill="none" stroke="#8B4513" stroke-width="1.5" opacity="0.7"/>
    <circle cx="24" cy="42" r="4" fill="none" stroke="#8B4513" stroke-width="1" opacity="0.7"/>
    <path d="M24 35 L24 49 M17 42 L31 42" stroke="#8B4513" stroke-width="1" opacity="0.7"/>
    
    <!-- Glowing text lines on right page -->
    <rect x="46" y="35" width="16" height="1.5" fill="#654321" opacity="0.6"/>
    <rect x="46" y="38" width="18" height="1.5" fill="#654321" opacity="0.6"/>
    <rect x="46" y="41" width="14" height="1.5" fill="#654321" opacity="0.6"/>
    <rect x="46" y="47" width="16" height="1.5" fill="#654321" opacity="0.6"/>
    <rect x="46" y="50" width="20" height="1.5" fill="#654321" opacity="0.6"/>
    <rect x="46" y="53" width="12" height="1.5" fill="#654321" opacity="0.6"/>
    
    <!-- Glowing mystical effect -->
    <circle cx="24" cy="42" r="10" fill="#FFD700" opacity="0.1" filter="url(#glow)"/>
    <circle cx="56" cy="47" r="8" fill="#8B4513" opacity="0.1" filter="url(#glow)"/>
    
    <!-- Page corners -->
    <path d="M15 25 L18 25 L15 28 Z" fill="#E0E0E0"/>
    <path d="M65 25 L62 25 L65 28 Z" fill="#E0E0E0"/>
</svg>