<!-- Updated: 2025-08-30T20:54:07.783Z -->
<svg width="80" height="80" viewBox="0 0 80 80" fill="none" xmlns="http://www.w3.org/2000/svg">
    <defs>
        <linearGradient id="illuminatedCover" x1="0%" y1="0%" x2="100%" y2="100%">
            <stop offset="0%" style="stop-color:#8B0000"/>
            <stop offset="50%" style="stop-color:#654321"/>
            <stop offset="100%" style="stop-color:#2F1B14"/>
        </linearGradient>
        <linearGradient id="goldDetail" x1="0%" y1="0%" x2="100%" y2="0%">
            <stop offset="0%" style="stop-color:#FFD700"/>
            <stop offset="100%" style="stop-color:#B8860B"/>
        </linearGradient>
    </defs>
    
    <!-- Shadow -->
    <ellipse cx="45" cy="74" rx="22" ry="3" fill="#000" opacity="0.3"/>
    
    <!-- Book cover -->
    <rect x="18" y="12" width="44" height="60" rx="4" fill="url(#illuminatedCover)" stroke="#B8860B" stroke-width="2"/>
    
    <!-- Book depth -->
    <path d="M62 12 L66 16 L66 72 L62 72 Z" fill="#2F1B14"/>
    <path d="M62 16 L66 16 L66 20 L62 20 Z" fill="url(#goldDetail)"/>
    
    <!-- Ornate border -->
    <rect x="22" y="16" width="36" height="52" rx="2" fill="none" stroke="url(#goldDetail)" stroke-width="1.5"/>
    <rect x="24" y="18" width="32" height="48" rx="1" fill="none" stroke="url(#goldDetail)" stroke-width="0.8" opacity="0.7"/>
    
    <!-- Central illuminated letter "D" -->
    <rect x="32" y="25" width="16" height="20" fill="#FFD700" opacity="0.2"/>
    <path d="M34 27 L34 43 L42 43 C45 43 47 41 47 39 L47 31 C47 29 45 27 42 27 Z" fill="url(#goldDetail)"/>
    <path d="M34 29 L34 41 L41 41 C43 41 44 40 44 39 L44 31 C44 30 43 29 41 29 Z" fill="#8B0000"/>
    
    <!-- Decorative flourishes around the letter -->
    <circle cx="30" cy="25" r="1.5" fill="url(#goldDetail)"/>
    <circle cx="50" cy="25" r="1.5" fill="url(#goldDetail)"/>
    <circle cx="30" cy="45" r="1.5" fill="url(#goldDetail)"/>
    <circle cx="50" cy="45" r="1.5" fill="url(#goldDetail)"/>
    
    <!-- Lower text area -->
    <rect x="26" y="52" width="28" height="2" fill="url(#goldDetail)" opacity="0.8"/>
    <rect x="26" y="56" width="22" height="1.5" fill="url(#goldDetail)" opacity="0.6"/>
    <rect x="26" y="59" width="18" height="1.5" fill="url(#goldDetail)" opacity="0.6"/>
    
    <!-- Corner ornaments -->
    <path d="M22 16 L26 20 L22 20 Z" fill="url(#goldDetail)" opacity="0.6"/>
    <path d="M58 16 L54 20 L58 20 Z" fill="url(#goldDetail)" opacity="0.6"/>
    <path d="M22 68 L26 64 L22 64 Z" fill="url(#goldDetail)" opacity="0.6"/>
    <path d="M58 68 L54 64 L58 64 Z" fill="url(#goldDetail)" opacity="0.6"/>
    
    <!-- Pages -->
    <rect x="19" y="13" width="1" height="58" fill="#F5F5DC" opacity="0.9"/>
    <rect x="20" y="14" width="1" height="56" fill="#F5F5DC" opacity="0.7"/>
</svg>