<!-- Updated: 2025-08-30T20:54:07.784Z -->
<svg version="1.1" id="Layer_1" xmlns="http://www.w3.org/2000/svg" xmlns:xlink="http://www.w3.org/1999/xlink" x="0px" y="0px"
	 width="100%" viewBox="0 0 816 816" enable-background="new 0 0 816 816" xml:space="preserve">
<path fill="#000000" opacity="1.000000" stroke="none" 
	d="
M663.824524,382.202026 
	C677.972229,402.416718 691.952637,422.306366 705.839233,442.261322 
	C708.497925,446.081970 710.796387,450.154144 713.244934,454.120209 
	C723.002502,469.925537 712.148743,485.200623 698.548218,488.351440 
	C693.697693,489.475189 688.782593,490.316986 683.909180,491.345337 
	C671.439819,493.976410 667.864868,500.203033 672.001587,512.348816 
	C673.555359,516.910950 675.668701,521.285156 677.167969,525.862671 
	C680.249329,535.270386 677.762756,541.431274 669.190552,546.439392 
	C663.242371,549.914551 663.242432,549.914612 666.023499,556.291809 
	C670.116211,565.676819 669.478882,571.515381 662.108032,577.780884 
	C652.955200,585.561035 650.825012,594.736633 653.792053,605.986328 
	C655.774902,613.504456 657.159607,621.160950 657.418518,629.046631 
	C658.142456,651.097290 642.858887,666.528076 622.230774,670.271240 
	C607.191650,673.000122 592.052490,670.843140 576.950867,669.965454 
	C562.565430,669.129395 548.307739,666.173279 533.735046,668.177734 
	C523.114990,669.638489 515.457153,674.714661 510.386353,683.993408 
	C505.193146,693.496094 503.215668,703.953186 501.382050,714.445984 
	C500.868744,717.383301 500.624451,720.368103 500.097382,723.302490 
	C498.352356,733.017883 494.452606,736.241272 484.430023,736.245056 
	C455.436249,736.255920 426.442444,736.233154 397.448669,736.232605 
	C342.793701,736.231567 288.138763,736.237732 233.483810,736.238770 
	C225.049133,736.238953 221.297989,733.976074 219.204498,727.992310 
	C218.059708,724.720154 218.993240,721.722046 219.965668,718.737122 
	C225.992172,700.238342 232.152771,681.783081 238.148209,663.274353 
	C245.842224,639.521729 249.949722,615.228210 248.649612,590.179993 
	C247.494629,567.927795 238.511642,548.762207 225.253769,531.307312 
	C224.447998,530.246460 223.561050,529.237488 222.848022,528.117615 
	C217.827530,520.232910 211.158936,517.575195 201.383804,516.932068 
	C162.694138,514.386536 124.496948,508.307190 87.798325,495.030823 
	C77.235855,491.209686 68.290115,485.324554 61.963348,475.576263 
	C58.213120,469.797943 58.116669,463.620514 58.106186,457.370026 
	C58.005604,397.383148 58.037960,337.396088 58.020298,277.409058 
	C58.008869,238.584198 58.257809,199.756073 57.804649,160.936234 
	C57.643978,147.172424 68.115746,138.415970 79.716179,139.652908 
	C96.675087,141.461182 113.668793,140.163895 130.519440,138.467560 
	C154.273865,136.076202 178.010651,133.440369 201.657761,129.951248 
	C230.876251,125.640099 259.694824,119.092720 288.915710,114.917503 
	C307.304016,112.290085 325.803284,110.464027 344.276733,108.455315 
	C368.788513,105.790009 393.320435,103.940666 417.951874,104.734993 
	C469.742554,106.405159 518.675171,118.961853 562.964905,146.330765 
	C607.025940,173.558273 636.208923,212.964920 653.135376,261.675323 
	C659.978455,281.368317 664.639343,301.538849 665.930725,322.392365 
	C666.240356,327.392670 665.232178,332.304749 663.694946,337.100677 
	C662.122314,342.006653 660.883484,347.024628 659.187927,351.885193 
	C655.411011,362.711945 656.211182,372.771271 663.824524,382.202026 
M127.223701,291.224487 
	C123.820793,286.245911 120.417885,281.267303 117.109032,276.426300 
	C114.961952,277.474182 114.465973,278.764374 113.812943,279.899536 
	C101.435272,301.415192 89.772385,323.315704 78.502556,345.429108 
	C77.311668,347.765778 77.174568,350.187592 77.178154,352.705902 
	C77.221313,383.038879 77.233070,413.371857 77.299400,443.704742 
	C77.303246,445.464264 76.766022,447.364929 77.938713,448.890930 
	C78.918442,449.477173 79.683304,448.994751 80.425804,448.695251 
	C101.543961,440.176392 123.728081,435.966248 146.138535,432.968353 
	C150.707764,432.357117 153.088501,431.038910 155.038971,426.848114 
	C164.633057,406.234436 180.562683,392.702301 202.237701,385.894897 
	C203.554642,385.481293 205.351288,385.785095 205.739975,383.797516 
	C176.119522,363.470825 179.688141,326.509796 195.998032,309.579681 
	C213.904984,290.991760 242.691910,289.426758 261.647980,306.722534 
	C270.756744,315.033508 276.211304,325.389160 277.252380,337.630920 
	C278.947327,357.561829 270.621918,372.903107 253.837341,384.105347 
	C255.156815,384.622345 255.758041,384.924438 256.394379,385.097748 
	C289.627625,394.149292 308.456879,416.153961 314.286194,449.706512 
	C314.837280,452.878479 316.721405,452.767975 318.915497,452.818604 
	C345.517303,453.432861 372.090668,454.450562 398.429993,458.635101 
	C425.097900,462.871918 451.364563,468.563171 475.960999,480.238007 
	C479.430817,481.885010 482.939575,483.414032 486.845306,483.625610 
	C499.387482,484.305084 509.636261,474.249542 509.639282,461.130951 
	C509.659821,372.131897 509.650360,283.132843 509.650299,194.133789 
	C509.650299,180.467270 509.583740,166.800232 509.689240,153.134537 
	C509.719330,149.233780 508.558350,145.918198 505.971710,143.115646 
	C504.132935,141.123383 501.705109,139.060806 499.100861,139.802887 
	C495.971741,140.694504 497.673187,144.065033 497.262177,146.353271 
	C497.175232,146.837296 497.254761,147.350937 497.254791,147.850922 
	C497.255371,250.683136 497.261597,353.515350 497.247620,456.347565 
	C497.246094,467.604034 491.663544,471.256500 481.519501,466.443878 
	C450.336365,451.649628 416.724976,447.279175 383.014343,443.384277 
	C366.820221,441.513245 350.567627,440.324860 334.246460,440.130432 
	C331.317413,440.095551 328.318665,439.269531 325.498810,438.355988 
	C321.827026,437.166351 319.534790,434.361267 319.847046,430.462463 
	C320.158264,426.577332 322.743469,424.374725 326.664764,423.590179 
	C330.961456,422.730591 335.254150,422.592133 339.592438,422.907379 
	C362.955841,424.605164 386.333801,426.124908 409.527344,429.622223 
	C431.069580,432.870575 452.536652,436.380554 472.936005,444.510651 
	C474.508270,445.137299 476.132202,446.476746 478.632935,445.120544 
	C478.632935,436.906555 478.629791,428.439697 478.636414,419.972839 
	C478.637360,418.721527 478.241943,417.653900 477.167358,416.973755 
	C468.191986,411.293274 459.866882,404.476959 449.457672,401.311096 
	C441.035217,398.749451 433.403748,401.641327 425.713257,404.477142 
	C421.200684,406.141144 417.335968,404.641724 415.141113,400.605957 
	C413.113037,396.876953 414.042969,392.984283 418.006805,390.165497 
	C420.012726,388.739044 422.313263,387.620209 424.626404,386.749847 
	C439.876068,381.012115 454.330048,383.124634 468.157227,391.316437 
	C471.249481,393.148438 474.198578,395.319916 478.544373,396.654358 
	C478.544373,389.710876 478.570740,383.276337 478.524475,376.842316 
	C478.513855,375.367828 477.424347,374.428925 476.318695,373.675323 
	C468.754639,368.519958 461.431732,362.998596 453.249115,358.789307 
	C438.456818,351.179871 425.014526,353.995270 412.270691,363.708466 
	C404.631561,369.530975 398.554810,376.854675 392.522369,384.144379 
	C376.394501,403.633667 351.166351,409.597321 329.177673,398.712372 
	C324.056671,396.177307 322.204559,391.887817 324.227844,387.248566 
	C325.968292,383.257874 330.190125,381.851471 335.250214,383.671448 
	C338.846954,384.965057 342.379333,386.303619 346.248505,386.784332 
	C361.433380,388.670898 372.618774,381.842804 381.893036,370.745026 
	C387.036621,364.590088 392.763123,358.997314 398.621796,353.561127 
	C405.400024,347.271667 413.062683,342.325378 422.049103,339.660583 
	C439.980804,334.343262 455.814789,339.584869 470.808807,349.227386 
	C472.712616,350.451691 474.342010,352.332977 477.222626,352.183655 
	C477.548187,351.344360 478.171906,350.462189 478.194214,349.565063 
	C478.384399,341.908966 478.515015,334.250366 478.548523,326.592010 
	C478.558411,324.334503 476.854034,323.116852 475.114471,322.011322 
	C469.491974,318.438141 463.935333,314.759369 458.269897,311.256165 
	C438.673187,299.138550 419.023010,301.159912 402.013519,316.873505 
	C393.921387,324.349121 386.929810,332.875702 379.148773,340.630676 
	C364.915283,354.816559 348.349274,361.811371 327.940826,356.303680 
	C322.010925,354.703400 318.677734,350.763519 319.844849,345.747101 
	C321.041412,340.604126 325.436188,338.321411 331.453125,339.644562 
	C336.126038,340.672180 340.643463,342.210785 345.668488,341.250824 
	C353.883179,339.681549 360.419037,335.464691 366.281982,329.791199 
	C374.308716,322.023865 381.112183,313.109863 389.364716,305.544952 
	C412.432861,284.398865 440.792908,279.645874 468.512299,297.238037 
	C471.216949,298.954559 473.827057,301.232056 477.266571,301.263641 
	C479.162872,299.275513 478.615753,297.000824 478.624725,294.902466 
	C478.678741,282.236115 478.662476,269.569519 478.662231,256.902985 
	C478.661530,219.570053 478.670288,182.237091 478.645813,144.904175 
	C478.639282,134.964996 474.150024,129.719131 464.328735,128.430786 
	C455.276581,127.243332 446.231720,126.020546 437.146515,125.031532 
	C415.521576,122.677475 393.886902,122.894463 372.311920,124.607964 
	C352.119080,126.211678 332.034668,129.137573 311.876007,131.225342 
	C284.928833,134.016205 258.360687,139.131531 231.727982,143.872177 
	C202.948837,148.994904 174.029358,153.186005 144.960526,156.213303 
	C124.578102,158.335968 104.092911,158.953979 83.607246,158.277328 
	C78.603668,158.112076 77.022865,159.505478 77.047531,164.646317 
	C77.267494,210.478119 77.224457,256.311157 77.279739,302.143799 
	C77.281830,303.873932 77.496521,305.603821 77.681335,308.369080 
	C79.642387,304.903961 81.012741,302.444519 82.418251,300.005371 
	C90.983345,285.141052 99.426987,270.204529 108.181725,255.452667 
	C112.527283,248.130310 117.796265,247.580795 124.175400,253.135651 
	C124.476494,253.397842 124.974823,253.433517 125.434418,253.593124 
	C126.183029,252.496628 126.866745,251.556366 127.487785,250.576401 
	C138.097534,233.835022 148.644226,217.053345 159.327255,200.358902 
	C164.439880,192.369339 171.479324,192.407776 176.686050,200.347580 
	C179.698990,204.942047 182.542572,209.648315 185.428787,214.324982 
	C194.176514,228.499390 202.942917,242.662521 211.614380,256.883514 
	C213.239349,259.548431 215.149536,262.360321 213.845383,265.743774 
	C212.732483,268.631073 210.985367,270.977936 207.556229,271.504211 
	C203.170914,272.177246 200.116135,270.196930 197.921631,266.699951 
	C191.193420,255.978485 184.558090,245.198730 177.863083,234.456345 
	C174.647141,229.296249 171.378235,224.169159 167.858856,218.592209 
	C166.615372,220.508331 165.783386,221.736221 165.005432,222.997437 
	C156.086823,237.456039 147.434937,252.089493 138.113464,266.283295 
	C135.141907,270.808075 135.761673,273.708984 138.535355,277.738647 
	C147.314987,290.493866 155.759140,303.480865 164.264221,316.423462 
	C165.898254,318.910034 167.653748,321.523926 166.975983,324.738831 
	C166.317459,327.862640 164.581802,330.327881 161.315857,331.096283 
	C157.125549,332.082184 153.740341,330.552185 151.362411,327.043976 
	C143.419357,315.325500 135.539597,303.564117 127.223701,291.224487 
M185.423126,452.186951 
	C187.796524,448.498108 191.341293,447.960114 195.073090,449.158508 
	C199.217331,450.489380 200.187195,454.199707 200.224228,458.014282 
	C200.337463,469.679138 200.514648,481.352356 200.177094,493.008148 
	C200.042801,497.644928 201.835098,499.353302 206.060028,499.445831 
	C207.391205,499.474976 208.720825,499.629211 210.051239,499.630341 
	C225.383621,499.643524 240.717987,499.501007 256.047119,499.723846 
	C260.473419,499.788177 261.827148,498.301910 261.734924,493.959717 
	C261.497925,482.799072 261.611572,471.628845 261.729065,460.463989 
	C261.765778,456.974304 262.008026,453.334015 265.407166,451.150513 
	C271.402161,447.299591 278.120422,451.328766 278.258392,459.081696 
	C278.462982,470.577637 278.474396,482.081635 278.283386,493.577484 
	C278.215515,497.660706 279.428497,499.458374 283.699738,499.001892 
	C287.004150,498.648743 290.367065,498.543396 293.685760,498.703888 
	C297.338623,498.880463 298.833160,497.524506 298.683380,493.801300 
	C298.148407,480.501923 299.300354,467.192383 297.773865,453.874786 
	C295.415619,433.301178 285.535706,417.903839 267.379822,408.050781 
	C249.690369,398.450867 230.213547,399.528809 211.693634,402.410980 
	C187.222076,406.219421 172.379227,422.481293 166.137299,446.532410 
	C162.278625,461.400421 164.089111,476.673859 162.416641,491.687500 
	C162.137634,494.191986 163.988876,494.846466 165.834244,495.134766 
	C171.194473,495.972198 176.579086,496.653381 181.588196,497.345306 
	C182.963699,496.009644 182.779846,494.777496 182.931168,493.646698 
	C184.375107,482.856384 183.369415,472.011108 183.628296,461.193817 
	C183.696396,458.347778 183.648514,455.523315 185.423126,452.186951 
M204.317520,327.846985 
	C202.461349,331.425385 201.397217,335.187469 201.080475,339.244171 
	C200.094849,351.867676 204.825928,361.673218 215.581436,368.263458 
	C225.340775,374.243286 239.799286,373.121490 248.884674,365.875916 
	C258.945435,357.852448 261.776123,347.035553 258.966370,335.034790 
	C256.043884,322.552521 247.517136,314.976562 234.978729,312.550537 
	C223.104736,310.253082 211.505402,316.130859 204.317520,327.846985 
M137.288361,452.103546 
	C117.850052,455.647308 97.841309,457.550903 80.699722,471.421753 
	C100.615814,485.560089 123.064140,487.801575 145.624634,492.368347 
	C145.258591,478.034424 146.926895,464.765625 147.674911,450.929352 
	C144.013397,451.301758 141.073456,451.600800 137.288361,452.103546 
z"/>
<path fill="#000000" opacity="1.000000" stroke="none" 
	d="
M763.758667,336.098145 
	C765.986023,318.450989 764.505554,301.523041 760.204712,284.782043 
	C756.654724,270.963593 750.619141,258.233398 743.419678,246.002411 
	C741.295654,242.394104 740.947327,238.832428 743.480652,235.247604 
	C745.780823,231.992783 749.014343,231.271576 752.721802,231.690552 
	C756.067017,232.068634 758.010254,234.306107 759.570984,236.935791 
	C770.891785,256.011261 778.492859,276.341644 781.507202,298.462158 
	C786.365112,334.111542 779.851440,367.499359 762.822510,399.002869 
	C761.795105,400.903564 760.701904,402.779083 759.500610,404.573425 
	C756.291138,409.367340 750.782837,410.926514 746.565979,408.317139 
	C741.820435,405.380554 740.484680,400.205872 743.715515,394.926422 
	C749.125366,386.086365 753.737000,376.898621 757.074402,367.093018 
	C760.450989,357.172272 763.033508,347.064636 763.758667,336.098145 
z"/>
<path fill="#000000" opacity="1.000000" stroke="none" 
	d="
M735.893860,274.255005 
	C750.481628,310.025818 748.789185,344.614044 730.671509,378.352173 
	C728.476868,382.438873 725.361267,385.442108 720.491028,385.083069 
	C716.617188,384.797485 713.778442,382.554413 712.301758,378.701385 
	C711.074646,375.499695 712.123596,372.821289 713.735107,370.211273 
	C723.625061,354.192932 728.022156,336.724335 727.655212,317.972229 
	C727.373962,303.598297 723.617798,290.104309 717.414490,277.227234 
	C716.331482,274.979279 715.039185,272.831848 713.966492,270.579407 
	C711.702026,265.824036 713.062744,260.683044 717.110657,258.389984 
	C721.450500,255.931595 726.412598,256.968109 729.298157,261.531036 
	C731.774475,265.446777 733.608582,269.768646 735.893860,274.255005 
z"/>
<path fill="#000000" opacity="1.000000" stroke="none" 
	d="
M708.928223,310.598083 
	C710.443542,326.765686 708.706482,341.917908 700.747864,355.925049 
	C698.453125,359.963806 695.128662,362.049744 690.424011,361.230011 
	C686.318237,360.514648 684.319153,357.613861 683.171204,353.843964 
	C682.456848,351.498108 683.368835,349.548431 684.392456,347.667480 
	C694.048462,329.923309 694.063782,312.153229 684.876221,294.214142 
	C682.242188,289.070862 683.787354,284.123260 688.298157,281.747375 
	C693.062683,279.237854 697.941895,280.939575 700.834656,286.162109 
	C704.988831,293.662170 707.535889,301.701111 708.928223,310.598083 
z"/>
<path fill="#000000" opacity="1.000000" stroke="none" 
	d="
M123.690338,646.266602 
	C125.714325,639.573669 130.350967,636.552002 135.881775,637.910583 
	C140.925552,639.149475 143.964279,643.792664 143.299088,649.244141 
	C142.663651,654.451843 137.634277,658.694336 132.604599,658.265381 
	C126.949844,657.783142 123.807472,653.710876 123.690338,646.266602 
z"/>
<path fill="#000000" opacity="1.000000" stroke="none" 
	d="
M618.959839,102.505821 
	C620.688049,97.283722 624.075867,94.546837 629.153503,94.883560 
	C633.723145,95.186607 636.968811,97.947922 637.990051,102.459534 
	C639.029358,107.050865 637.678162,111.072357 633.518250,113.733978 
	C630.442810,115.701706 627.129700,115.734062 624.021973,113.984436 
	C619.748169,111.578331 618.547058,107.549988 618.959839,102.505821 
z"/>
<path fill="#000000" opacity="1.000000" stroke="none" 
	d="
M189.911835,593.189575 
	C192.267410,597.874756 192.578644,602.150757 189.182159,606.032104 
	C186.385544,609.227966 182.728607,610.107544 178.754288,608.893433 
	C174.522629,607.600891 172.093964,604.499512 171.752350,600.117493 
	C171.428986,595.969299 173.062973,592.399963 176.911499,590.666687 
	C181.468979,588.614075 185.980103,588.936279 189.911835,593.189575 
z"/>
<path fill="#000000" opacity="1.000000" stroke="none" 
	d="
M729.604858,144.320648 
	C733.650085,148.281097 734.488892,152.543304 732.034790,157.245224 
	C730.126892,160.900543 726.660767,162.376251 722.872864,161.949600 
	C718.387085,161.444397 715.346069,158.619339 714.308411,154.069260 
	C713.415466,150.153442 714.583313,146.762146 717.717041,144.326340 
	C721.417664,141.449905 725.383484,141.636246 729.604858,144.320648 
z"/>
<path fill="#000000" opacity="1.000000" stroke="none" 
	d="
M711.396851,662.068237 
	C718.056641,659.705811 723.523865,661.952515 725.094055,667.359741 
	C726.740845,673.030701 723.825256,678.320984 718.224304,679.824951 
	C714.292419,680.880737 709.822632,678.776489 707.812439,674.923340 
	C705.390503,670.280884 706.423889,666.226501 711.396851,662.068237 
z"/>
<path fill="#000000" opacity="1.000000" stroke="none" 
	d="
M757.014038,531.879822 
	C753.416565,535.352905 749.647827,536.479309 745.445129,534.114502 
	C741.314880,531.790344 740.092285,527.980408 740.752563,523.488586 
	C741.364441,519.326538 744.165710,517.187744 747.995850,516.261047 
	C751.755310,515.351440 754.959595,516.668457 757.236450,519.602112 
	C760.232300,523.462036 760.043274,527.573181 757.014038,531.879822 
z"/>
<path fill="#000000" opacity="1.000000" stroke="none" 
	d="
M151.794525,103.781586 
	C158.516342,106.134041 161.427231,110.573914 159.914932,115.584702 
	C158.510147,120.239197 155.036118,122.666359 150.255219,122.333519 
	C146.080490,122.042877 142.584259,118.794312 141.850555,114.524200 
	C141.115143,110.244209 143.628021,106.086693 148.032959,104.464088 
	C149.095856,104.072571 150.268433,103.978775 151.794525,103.781586 
z"/>
<path fill="#000000" opacity="1.000000" stroke="none" 
	d="
M680.662720,176.123566 
	C683.592712,171.350449 687.717102,170.740799 692.115173,172.267654 
	C696.238831,173.699234 697.616150,177.152100 697.381958,181.399826 
	C697.138489,185.818741 694.658386,188.390274 690.681213,189.603622 
	C687.378479,190.611191 684.468140,189.498245 682.137207,187.079147 
	C679.150330,183.979248 678.996216,180.345718 680.662720,176.123566 
z"/>
<path fill="#000000" opacity="1.000000" stroke="none" 
	d="
M87.670975,558.162109 
	C89.078880,552.193787 92.734558,549.147034 97.246056,549.772400 
	C102.229507,550.463196 105.846725,555.085693 105.279526,560.038452 
	C104.766930,564.514465 100.489670,568.364868 96.124626,568.279663 
	C91.256371,568.184570 88.077911,564.543152 87.670975,558.162109 
z"/>
<path fill="#000000" opacity="1.000000" stroke="none" 
	d="
M299.186432,195.103958 
	C323.575317,177.807358 353.585327,189.377472 359.855713,218.160706 
	C364.095215,237.621475 349.098450,259.063965 329.721252,262.446381 
	C310.210022,265.852234 294.820770,254.764359 288.955261,241.671509 
	C282.307037,226.831573 284.817566,206.963654 299.186432,195.103958 
M320.835815,245.630554 
	C321.998566,245.630875 323.166473,245.703293 324.323212,245.620163 
	C334.222260,244.908752 342.576202,236.360992 343.595703,225.933578 
	C344.430542,217.394745 337.867371,207.926315 329.318085,205.335922 
	C319.231964,202.279846 309.280304,206.228622 304.687531,215.109238 
	C298.059937,227.924393 305.112274,241.965820 320.835815,245.630554 
z"/>
<path fill="#000000" opacity="1.000000" stroke="none" 
	d="
M287.466858,252.403763 
	C295.056793,255.454514 296.693848,261.921997 291.527740,267.444214 
	C289.252777,269.875946 286.890930,272.245941 284.394409,274.446381 
	C280.095123,278.235718 275.249176,278.326721 271.866638,274.879730 
	C268.534058,271.483643 268.728333,266.432098 272.502869,262.344208 
	C274.874969,259.775177 277.397583,257.341278 279.915100,254.911484 
	C281.901825,252.994049 284.191803,251.747208 287.466858,252.403763 
z"/>
<path fill="#000000" opacity="1.000000" stroke="none" 
	d="
M355.935730,266.959167 
	C351.513000,261.709778 351.400879,257.031616 355.367065,253.589767 
	C359.091095,250.358063 363.114594,250.972397 367.569519,255.505585 
	C369.898956,257.875977 372.289246,260.201965 374.440857,262.727905 
	C377.342773,266.134583 377.094025,271.083496 374.095398,274.003479 
	C370.940582,277.075562 367.054626,277.252502 363.346161,274.152985 
	C360.804321,272.028534 358.564819,269.542297 355.935730,266.959167 
z"/>
<path fill="#000000" opacity="1.000000" stroke="none" 
	d="
M318.092957,293.784393 
	C313.819794,287.024933 315.406342,279.931427 316.319702,273.224976 
	C316.819000,269.558624 320.972870,268.283386 324.779755,268.782043 
	C328.442474,269.261780 331.043579,271.302917 331.247589,275.173218 
	C331.491882,279.807434 331.578278,284.484375 331.238739,289.106506 
	C330.791229,295.198853 324.922363,297.352966 318.092957,293.784393 
z"/>
<path fill="#000000" opacity="1.000000" stroke="none" 
	d="
M329.466919,155.517593 
	C331.725861,157.370651 332.378265,159.493301 332.349121,161.937958 
	C332.303741,165.744919 332.434296,169.556870 332.289154,173.359024 
	C332.111877,178.002258 328.738525,181.315430 324.479645,181.276855 
	C320.043274,181.236679 316.852753,178.075165 316.694733,173.402054 
	C316.588470,170.260193 316.650635,167.112076 316.663849,163.966858 
	C316.699951,155.372971 320.756989,152.552322 329.466919,155.517593 
z"/>
<path fill="#000000" opacity="1.000000" stroke="none" 
	d="
M291.144043,183.021042 
	C293.300110,185.408157 294.018066,187.876175 293.548279,190.663635 
	C292.524139,196.740082 286.289215,199.256531 281.522186,195.290604 
	C278.342316,192.645111 275.472382,189.586517 272.705627,186.496231 
	C269.859528,183.317291 269.924469,178.284576 272.527527,175.584152 
	C275.328888,172.678009 280.290344,172.649368 283.798920,175.740967 
	C286.288422,177.934601 288.543793,180.393921 291.144043,183.021042 
z"/>
<path fill="#000000" opacity="1.000000" stroke="none" 
	d="
M374.370544,175.429352 
	C378.079773,179.756592 377.522552,183.538986 373.890472,187.146240 
	C371.289764,189.729156 368.814636,192.442169 366.152832,194.958939 
	C362.748566,198.177673 358.444427,198.303391 355.413361,195.448181 
	C351.975006,192.209305 351.947540,188.418915 355.536377,184.495743 
	C357.895813,181.916534 360.573486,179.627106 362.914703,177.032837 
	C366.200348,173.391998 369.834564,172.713562 374.370544,175.429352 
z"/>
<path fill="#000000" opacity="1.000000" stroke="none" 
	d="
M368.119324,228.713806 
	C366.669769,220.797745 369.157623,217.740234 376.679169,217.683197 
	C379.836121,217.659256 383.000671,217.575439 386.149231,217.747803 
	C390.749908,217.999695 394.322845,221.148727 394.097015,225.069366 
	C393.849030,229.374619 391.491974,232.430679 386.939758,232.499069 
	C380.545441,232.595123 373.574432,235.208939 368.119324,228.713806 
z"/>
<path fill="#000000" opacity="1.000000" stroke="none" 
	d="
M260.338562,232.345093 
	C254.961899,231.713013 251.670853,228.572678 251.838593,224.666656 
	C252.012070,220.626816 255.537247,217.742615 260.525635,217.670166 
	C264.332764,217.614883 268.146912,217.553040 271.948242,217.717834 
	C276.055878,217.895935 279.432159,221.230316 279.084503,225.080795 
	C278.723907,229.074570 276.531036,231.974823 272.215637,232.257797 
	C268.423157,232.506485 264.603119,232.334686 260.338562,232.345093 
z"/>
<path fill="#000000" opacity="1.000000" stroke="none" 
	d="
M430.702911,232.936478 
	C424.762756,228.923370 423.393524,224.514999 426.304657,219.851715 
	C428.952484,215.610214 434.057953,214.379395 438.430206,216.928452 
	C441.988495,219.002945 443.488251,223.451340 442.109711,227.842117 
	C440.880035,231.758789 437.169556,233.524918 430.702911,232.936478 
z"/>
<path fill="#000000" opacity="1.000000" stroke="none" 
	d="
M125.448326,373.318115 
	C129.213257,376.436340 130.453262,379.979889 128.390625,384.123383 
	C126.671631,387.576569 123.592209,389.110413 119.780502,388.697052 
	C116.339905,388.323944 113.861778,386.319244 112.982780,382.989624 
	C112.155563,379.856171 112.342766,376.675079 115.066368,374.295868 
	C118.121368,371.627136 121.472618,371.011963 125.448326,373.318115 
z"/>
</svg>