<svg width="80" height="80" viewBox="0 0 80 80" fill="none" xmlns="http://www.w3.org/2000/svg">
    <defs>
        <linearGradient id="bookGradient1" x1="0%" y1="0%" x2="100%" y2="100%">
            <stop offset="0%" style="stop-color:#8B4513"/>
            <stop offset="50%" style="stop-color:#654321"/>
            <stop offset="100%" style="stop-color:#3D2817"/>
        </linearGradient>
        <linearGradient id="bookGradient2" x1="0%" y1="0%" x2="100%" y2="100%">
            <stop offset="0%" style="stop-color:#A0522D"/>
            <stop offset="50%" style="stop-color:#8B4513"/>
            <stop offset="100%" style="stop-color:#654321"/>
        </linearGradient>
        <linearGradient id="goldAccent" x1="0%" y1="0%" x2="100%" y2="0%">
            <stop offset="0%" style="stop-color:#FFD700"/>
            <stop offset="100%" style="stop-color:#B8860B"/>
        </linearGradient>
    </defs>
    
    <!-- Shadow base -->
    <ellipse cx="40" cy="72" rx="25" ry="4" fill="#000" opacity="0.2"/>
    
    <!-- Bottom book (largest) -->
    <rect x="15" y="50" width="50" height="18" rx="2" fill="url(#bookGradient1)" stroke="#2F1B14" stroke-width="1"/>
    <rect x="17" y="52" width="46" height="2" fill="url(#goldAccent)"/>
    <rect x="17" y="64" width="46" height="2" fill="url(#goldAccent)"/>
    <rect x="60" y="52" width="3" height="14" fill="#2F1B14"/>
    
    <!-- Middle book -->
    <rect x="18" y="35" width="44" height="16" rx="2" fill="url(#bookGradient2)" stroke="#2F1B14" stroke-width="1"/>
    <rect x="20" y="37" width="40" height="1.5" fill="url(#goldAccent)"/>
    <rect x="20" y="48" width="40" height="1.5" fill="url(#goldAccent)"/>
    <rect x="57" y="37" width="3" height="12" fill="#2F1B14"/>
    
    <!-- Top book -->
    <rect x="20" y="22" width="40" height="14" rx="2" fill="url(#bookGradient1)" stroke="#2F1B14" stroke-width="1"/>
    <rect x="22" y="24" width="36" height="1.5" fill="url(#goldAccent)"/>
    <rect x="22" y="33" width="36" height="1.5" fill="url(#goldAccent)"/>
    <rect x="55" y="24" width="3" height="10" fill="#2F1B14"/>
    
    <!-- Mystical elements -->
    <circle cx="40" cy="29" r="6" fill="none" stroke="url(#goldAccent)" stroke-width="1.5" opacity="0.7"/>
    <circle cx="40" cy="29" r="2" fill="url(#goldAccent)" opacity="0.8"/>
    
    <!-- Pages effect -->
    <rect x="16" y="51" width="1" height="16" fill="#F5F5DC" opacity="0.8"/>
    <rect x="19" y="36" width="1" height="14" fill="#F5F5DC" opacity="0.8"/>
    <rect x="21" y="23" width="1" height="12" fill="#F5F5DC" opacity="0.8"/>
</svg>